<svg width="32" height="32" viewBox="0 0 32 32" fill="none" xmlns="http://www.w3.org/2000/svg">
<path d="M13.3333 4H10.6666V6.66667H7.99996V9.33333H10.6666V6.66667H13.3333V9.33333H16V12H13.3333V14.6667H10.6666V17.3333H7.99996V20H5.33329V17.3333H2.66663V20H5.33329V22.6667H7.99996V20H13.3333V22.6667H16V25.3333H13.3333V28H16V25.3333H18.6666V22.6667H16V17.3333H18.6666V14.6667H21.3333V17.3333H24V20H26.6666V17.3333H29.3333V14.6667H26.6666V17.3333H24V14.6667H21.3333V12H24V6.66667H18.6666V9.33333H16V6.66667H13.3333V4Z" fill="white"/>
</svg>
